# xmcd
#
# Track frame offsets:
# 150
# 15157
# 29865
# 46877
# 63990
# 79542
# 96540
# 109040
# 124270
# 140772
# 155662
# 173250
#
# Disc length: 2445 seconds
#
#
# Revision: 0
# Processed by: cddbd v1.5.1PL0 Copyright (c) Steve Scherf et al.
# Submitted via: FreeRIP 2.80 
#
DISCID=99098b0c
DTITLE=Rebecca Lynn Howard - Rebecca Lynn Howard
DYEAR=2000
DGENRE=Country
TTITLE0=Hearst sounds
TTITLE1=I don't paint myself into corners
TTITLE2=Out here in the water
TTITLE3=Melancholy blue
TTITLE4=You're real
TTITLE5=Was it as hard to be together
TTITLE6=Move me
TTITLE7=You're not a memory yet
TTITLE8=Beleive it or not
TTITLE9=When my dreams come true
TTITLE10=Jesus, Daddy and you
TTITLE11=Tennessee in my windshiled
EXTD=
EXTT0=
EXTT1=
EXTT2=
EXTT3=
EXTT4=
EXTT5=
EXTT6=
EXTT7=
EXTT8=
EXTT9=
EXTT10=
EXTT11=
PLAYORDER=
